# Blender v2.75 (sub 0) OBJ File: 'horquilla.blend'
# www.blender.org
mtllib horquilla.mtl
o Cube
v -3.139400 5.660367 -2.545034
v -3.139400 11.158357 -2.545034
v -3.139400 5.660367 -2.967636
v -3.139400 11.158357 -2.967636
v 3.134949 5.660367 -2.545034
v 3.134949 11.158357 -2.545034
v 3.134949 5.660367 -2.967636
v 3.134949 11.158357 -2.967636
v -2.975169 5.560396 -3.007936
v -2.975168 5.560396 -2.553905
v 2.975169 5.560395 -2.553902
v 2.975168 5.560395 -3.007933
v -2.975170 6.019876 -3.007936
v -2.975166 6.019876 -2.553905
v 2.975170 6.019876 -2.553902
v 2.975169 6.019876 -3.007933
v 2.455165 5.560395 -2.715627
v 2.909197 5.560395 -2.715605
v 2.909739 5.560395 -13.922519
v 2.455707 5.560395 -13.922538
v 2.455165 6.019876 -2.715624
v 2.909197 6.019876 -2.715609
v 2.909739 6.019876 -13.922521
v 2.455707 6.019876 -13.922540
v -2.905114 5.560396 -2.715629
v -2.451082 5.560396 -2.715607
v -2.450541 5.560396 -13.922521
v -2.904572 5.560396 -13.922540
v -2.905114 6.019876 -2.715626
v -2.451082 6.019876 -2.715611
v -2.450541 6.019876 -13.922522
v -2.904572 6.019876 -13.922542
vn -1.000000 0.000000 0.000000
vn 0.000000 0.000000 -1.000000
vn 1.000000 0.000000 0.000000
vn 0.000000 0.000000 1.000000
vn 0.000000 -1.000000 0.000000
vn 0.000000 1.000000 0.000000
usemtl Material
s off
f 4//1 3//1 1//1
f 8//2 7//2 3//2
f 6//3 5//3 7//3
f 2//4 1//4 5//4
f 3//5 7//5 5//5
f 8//6 4//6 2//6
f 10//6 11//6 12//6
f 16//5 15//5 14//5
f 13//3 14//3 10//3
f 14//2 15//2 11//2
f 15//1 16//1 12//1
f 9//4 12//4 16//4
f 18//6 19//6 20//6
f 24//5 23//5 22//5
f 21//2 22//2 18//2
f 22//1 23//1 19//1
f 23//4 24//4 20//4
f 17//3 20//3 24//3
f 26//6 27//6 28//6
f 32//5 31//5 30//5
f 29//2 30//2 26//2
f 30//1 31//1 27//1
f 31//4 32//4 28//4
f 25//3 28//3 32//3
f 2//1 4//1 1//1
f 4//2 8//2 3//2
f 8//3 6//3 7//3
f 6//4 2//4 5//4
f 1//5 3//5 5//5
f 6//6 8//6 2//6
f 9//6 10//6 12//6
f 13//5 16//5 14//5
f 9//3 13//3 10//3
f 10//2 14//2 11//2
f 11//1 15//1 12//1
f 13//4 9//4 16//4
f 17//6 18//6 20//6
f 21//5 24//5 22//5
f 17//2 21//2 18//2
f 18//1 22//1 19//1
f 19//4 23//4 20//4
f 21//3 17//3 24//3
f 25//6 26//6 28//6
f 29//5 32//5 30//5
f 25//2 29//2 26//2
f 26//1 30//1 27//1
f 27//4 31//4 28//4
f 29//3 25//3 32//3
